<svg xmlns="http://www.w3.org/2000/svg" viewBox="-800 0 2800 260" role="img" aria-label="Cartoon Victoria, Texas skyline: the courthouse, a Vic water tower, downtown shops, the Guadalupe River, and bluebonnets">
  <g stroke="#1F1A3D" stroke-width="4" stroke-linejoin="round" stroke-linecap="round">
    <!-- sun -->
    <g fill="none">
      <path d="M1040 10v-8M1040 138v8M972 74h-8M1108 74h8M992 26l-6-6M1088 122l6 6M1088 26l6-6M992 122l-6 6"/>
    </g>
    <circle cx="1040" cy="74" r="44" fill="#FFC93C"/>
    <path d="M1022 80q18 16 36 0" fill="none"/>
    <circle cx="1026" cy="64" r="4" fill="#1F1A3D" stroke="none"/>
    <circle cx="1054" cy="64" r="4" fill="#1F1A3D" stroke="none"/>
    <!-- clouds -->
    <path d="M150 52a18 18 0 0 1 34-8a22 22 0 0 1 40 8a14 14 0 0 1 0 28h-74a14 14 0 0 1 0-28z" fill="#fff"/>
    <path d="M760 38a14 14 0 0 1 27-6a18 18 0 0 1 32 6a11 11 0 0 1 0 22h-59a11 11 0 0 1 0-22z" fill="#fff"/>
    <!-- hills -->
    <path d="M-810 192Q-620 150 -420 180T-10 188Q150 148 300 178T600 172T900 178T1210 188Q1420 150 1620 182T2010 186V216H-810Z" fill="#7ED6A8"/>
    <!-- water tower: one color, same shape as the logo -->
    <path d="M102 212l14-82M158 212l-14-82M130 134v78M106 184h48M110 160h40M106 184l42-24M154 184l-42-24" fill="none"/>
    <path d="M84 92Q92 60 130 57Q168 60 176 92V112Q176 136 130 136Q84 136 84 112Z" fill="#FFC93C"/>
    <path d="M130 57v-9" fill="none"/>
    <circle cx="130" cy="44" r="5" fill="#FFC93C"/>
    <path d="M84 92Q130 101 176 92" fill="none" stroke-width="4"/>
    <path d="M98 82Q104 70 118 66" fill="none" stroke="#FFFFFF" stroke-width="5" opacity="0.8"/>
    <text x="130" y="126" text-anchor="middle" font-family="Fredoka, 'Arial Black', Arial, sans-serif" font-weight="900" font-size="28" fill="#1F1A3D" stroke="none">Vic</text>
    <!-- left shops -->
    <rect x="216" y="128" width="72" height="84" fill="#FF9F6E"/>
    <rect x="296" y="104" width="62" height="108" fill="#FFC93C"/>
    <rect x="364" y="146" width="52" height="66" fill="#FF8FC0"/>
    <g fill="#FFF4D6" stroke-width="3">
      <rect x="228" y="142" width="16" height="16"/><rect x="260" y="142" width="16" height="16"/>
      <rect x="228" y="172" width="16" height="16"/><rect x="260" y="172" width="16" height="16"/>
      <rect x="308" y="118" width="14" height="16"/><rect x="332" y="118" width="14" height="16"/>
      <rect x="308" y="146" width="14" height="16"/><rect x="332" y="146" width="14" height="16"/>
      <rect x="308" y="174" width="14" height="16"/><rect x="332" y="174" width="14" height="16"/>
      <rect x="376" y="160" width="28" height="18"/>
    </g>
    <path d="M364 196h52" fill="none" stroke-width="3"/>
    <!-- tree -->
    <path d="M444 212v-26" fill="none"/>
    <circle cx="444" cy="172" r="22" fill="#3DBE8B"/>
    <!-- courthouse -->
    <path d="M470 100l17-22l17 22zM700 100l17-22l17 22z" fill="#E58F5B"/>
    <rect x="474" y="100" width="26" height="22" fill="#F6E3C3"/>
    <rect x="704" y="100" width="26" height="22" fill="#F6E3C3"/>
    <rect x="462" y="120" width="280" height="14" fill="#E58F5B"/>
    <rect x="470" y="134" width="264" height="78" fill="#F6E3C3"/>
    <path d="M565 62Q602 4 639 62Z" fill="#3DBE8B"/>
    <path d="M602 34V2" fill="none"/>
    <path d="M602 4l22 6l-22 6z" fill="#FF5C5C"/>
    <rect x="570" y="60" width="64" height="62" fill="#F6E3C3"/>
    <circle cx="602" cy="90" r="18" fill="#fff"/>
    <path d="M602 90v-11M602 90l8 5" fill="none" stroke-width="3"/>
    <g fill="#4B3FD1" stroke-width="3">
      <path d="M490 200v-30a10 10 0 0 1 20 0v30z"/><path d="M526 200v-30a10 10 0 0 1 20 0v30z"/>
      <path d="M562 200v-30a10 10 0 0 1 20 0v30z"/><path d="M622 200v-30a10 10 0 0 1 20 0v30z"/>
      <path d="M658 200v-30a10 10 0 0 1 20 0v30z"/><path d="M694 200v-30a10 10 0 0 1 20 0v30z"/>
      <path d="M590 212v-34a12 12 0 0 1 24 0v34z"/>
    </g>
    <!-- tree -->
    <path d="M762 212v-24" fill="none"/>
    <circle cx="762" cy="172" r="20" fill="#3DBE8B"/>
    <!-- right shops -->
    <rect x="790" y="120" width="56" height="92" fill="#8FD3FF"/>
    <rect x="852" y="146" width="72" height="66" fill="#FF9F6E"/>
    <rect x="930" y="100" width="46" height="112" fill="#B9A6FF"/>
    <path d="M852 146h72l-6 16h-60z" fill="#FF5C5C"/>
    <g fill="#FFF4D6" stroke-width="3">
      <rect x="802" y="134" width="12" height="14"/><rect x="822" y="134" width="12" height="14"/>
      <rect x="802" y="160" width="12" height="14"/><rect x="822" y="160" width="12" height="14"/>
      <rect x="802" y="186" width="12" height="14"/><rect x="822" y="186" width="12" height="14"/>
      <rect x="866" y="174" width="18" height="38"/><rect x="896" y="174" width="18" height="18"/>
      <rect x="942" y="114" width="22" height="14"/><rect x="942" y="140" width="22" height="14"/>
      <rect x="942" y="166" width="22" height="14"/>
    </g>
    <!-- tree -->
    <path d="M1006 212v-24" fill="none"/>
    <circle cx="1006" cy="174" r="18" fill="#3DBE8B"/>
    <!-- bluebonnets -->
    <g fill="none" stroke-width="3">
      <path d="M30 214v-30M52 214v-40M74 214v-26M1126 214v-28M1148 214v-40M1170 214v-30"/>
    </g>
    <g fill="#4B3FD1" stroke-width="2.5">
      <circle cx="30" cy="196" r="5"/><circle cx="30" cy="186" r="5"/><circle cx="52" cy="194" r="5"/><circle cx="52" cy="184" r="5"/><circle cx="52" cy="174" r="5"/>
      <circle cx="74" cy="198" r="5"/><circle cx="74" cy="188" r="5"/>
      <circle cx="1126" cy="196" r="5"/><circle cx="1126" cy="186" r="5"/><circle cx="1148" cy="194" r="5"/><circle cx="1148" cy="184" r="5"/><circle cx="1148" cy="174" r="5"/>
      <circle cx="1170" cy="196" r="5"/><circle cx="1170" cy="186" r="5"/>
    </g>
    <g fill="#fff" stroke-width="2.5">
      <circle cx="30" cy="178" r="4"/><circle cx="52" cy="166" r="4"/><circle cx="74" cy="181" r="4"/>
      <circle cx="1126" cy="178" r="4"/><circle cx="1148" cy="166" r="4"/><circle cx="1170" cy="178" r="4"/>
    </g>
    <!-- out past town (shown on wide screens; cropped on narrow ones) -->
    <path d="M-330 212v-24M1520 212v-24" fill="none"/>
    <circle cx="-330" cy="172" r="22" fill="#3DBE8B"/>
    <circle cx="1520" cy="172" r="22" fill="#3DBE8B"/>
    <g fill="#3DBE8B">
      <path d="M-560 212v-60a12 12 0 0 1 24 0v60z"/>
      <path d="M-560 186h-12a8 8 0 0 1-8-8v-14a6 6 0 0 1 12 0v10h8z"/>
      <path d="M-536 176h10v-12a6 6 0 0 1 12 0v16a8 8 0 0 1-8 8h-14z"/>
      <path d="M1736 212v-60a12 12 0 0 1 24 0v60z"/>
      <path d="M1736 186h-12a8 8 0 0 1-8-8v-14a6 6 0 0 1 12 0v10h8z"/>
      <path d="M1760 176h10v-12a6 6 0 0 1 12 0v16a8 8 0 0 1-8 8h-14z"/>
    </g>
    <g fill="none" stroke-width="3"><path d="M-160 214v-30M-138 214v-38M1330 214v-34M1352 214v-26"/></g>
    <g fill="#4B3FD1" stroke-width="2.5">
      <circle cx="-160" cy="196" r="5"/><circle cx="-160" cy="186" r="5"/><circle cx="-138" cy="194" r="5"/><circle cx="-138" cy="184" r="5"/>
      <circle cx="1330" cy="196" r="5"/><circle cx="1330" cy="186" r="5"/><circle cx="1352" cy="198" r="5"/>
    </g>
    <path d="M-700 52a14 14 0 0 1 27-6a18 18 0 0 1 32 6a11 11 0 0 1 0 22h-59a11 11 0 0 1 0-22z" fill="#fff"/>
    <path d="M1600 40a18 18 0 0 1 34-8a22 22 0 0 1 40 8a14 14 0 0 1 0 28h-74a14 14 0 0 1 0-28z" fill="#fff"/>
    <!-- Guadalupe River -->
    <path d="M-810 214H2010V264H-810Z" fill="#5BB8F5"/>
    <path d="M60 238q15-10 30 0t30 0M300 246q15-10 30 0t30 0M560 236q15-10 30 0t30 0M820 246q15-10 30 0t30 0M1060 236q15-10 30 0t30 0M-640 244q15-10 30 0t30 0M-380 236q15-10 30 0t30 0M1340 244q15-10 30 0t30 0M1620 236q15-10 30 0t30 0M1880 244q15-10 30 0t30 0" fill="none" stroke="#fff" stroke-width="4"/>
  </g>
</svg>
